<?xml version="1.0" encoding="UTF-8" standalone="no"?>
<svg
   xmlns:dc="http://purl.org/dc/elements/1.1/"
   xmlns:cc="http://creativecommons.org/ns#"
   xmlns:rdf="http://www.w3.org/1999/02/22-rdf-syntax-ns#"
   xmlns:svg="http://www.w3.org/2000/svg"
   xmlns="http://www.w3.org/2000/svg"
   width="8.4666662mm"
   height="8.4666662mm"
   viewBox="0 0 8.4666662 8.4666662"
   version="1.1"
   id="svg4875">
  <defs
     id="defs4869">
    <filter
       id="filter901"
       style="color-interpolation-filters:sRGB" />
  </defs>
  <metadata
     id="metadata4872">
    <rdf:RDF>
      <cc:Work
         rdf:about="">
        <dc:format>image/svg+xml</dc:format>
        <dc:type
           rdf:resource="http://purl.org/dc/dcmitype/StillImage" />
        <dc:title></dc:title>
      </cc:Work>
    </rdf:RDF>
  </metadata>
  <g
     transform="translate(-72.933997,-59.778803)"
     id="layer1">
    <g
       transform="matrix(0.09583035,0,0,0.09562307,64.372837,58.013146)"
       id="g852">
      <path
         id="path838"
         d="m 125.63929,106.63852 c -5.27585,-0.88731 -11.47858,-3.4199 -16.75695,-6.841917 -7.48589,-4.853167 -13.201306,-12.107965 -16.958146,-21.525625 -1.898396,-4.758906 -2.565715,-8.719806 -2.586207,-15.35054 -0.01586,-5.131859 0.09589,-6.310151 0.944144,-9.954858 1.035082,-4.44746 1.232612,-4.971746 3.891883,-10.329865 2.286655,-4.607342 4.315636,-7.432803 7.838186,-10.915082 3.51831,-3.478084 4.71066,-4.430054 8.59478,-6.862024 8.14453,-5.099561 18.81583,-7.330111 28.85331,-6.03102 2.64148,0.341872 7.62213,1.502633 9.10955,2.123018 13.79679,5.754487 21.50035,13.330588 26.53384,26.09483 1.78474,4.525853 1.8865,4.97971 2.2997,10.257286 0.56684,7.239953 0.0378,14.954745 -1.29241,18.846882 -2.84405,8.321559 -8.56046,16.731852 -14.53245,21.380952 -5.48955,4.273523 -13.00395,7.764943 -19.27061,8.953703 -3.07522,0.58337 -13.54133,0.68022 -16.66862,0.15426 z"
         style="fill:#dcd1a4;stroke-width:0.352778" />
      <path
         id="path840"
         d="M 127.57956,106.32367 C 112.34406,103.81072 100.9908,95.479877 94.150613,81.79405 91.512035,76.51479 89.479562,68.319504 89.479562,62.959561 c 0,-5.159375 2.19545,-14.103402 4.733096,-19.282128 2.395607,-4.888858 5.180071,-8.651523 9.283872,-12.545359 8.46468,-8.031604 18.33123,-11.951923 30.08026,-11.951923 9.07271,0 16.86194,2.276709 24.06477,7.03387 9.90871,6.544283 16.85899,16.777897 18.93976,27.886972 0.23622,1.261181 0.60062,2.877767 0.80978,3.592414 0.66856,2.284314 0.1338,11.226179 -0.89278,14.92842 -2.5152,9.070728 -5.98464,15.195469 -12.00874,21.199507 -7.18903,7.165086 -14.46183,10.782196 -25.44474,12.654896 -3.16323,0.53936 -7.63072,0.47991 -11.46528,-0.15256 z"
         style="fill:#f1d41f;stroke-width:0.352778" />
      <path
         id="path842"
         d="m 130.93095,106.70844 c -0.38805,-0.16578 -1.8168,-0.41431 -3.175,-0.5523 -2.35963,-0.23972 -4.16896,-0.64301 -8.15578,-1.81788 -2.22755,-0.65643 -8.41851,-3.74818 -11.1904,-5.588454 -1.13303,-0.752232 -3.35553,-2.67062 -4.93889,-4.263087 -4.032443,-4.05566 -4.938553,-5.221527 -3.43118,-4.414802 0.90828,0.486096 1.78708,0.463303 1.78708,-0.04635 0,-0.226345 -1.08825,-2.091658 -2.418332,-4.145139 -1.330086,-2.05348 -3.016625,-4.884536 -3.747865,-6.291238 -0.932428,-1.79373 -1.527209,-2.557639 -1.991385,-2.557639 -0.364022,0 -0.66925,0.198438 -0.678284,0.440973 -0.009,0.242534 -0.387488,-0.273403 -0.841008,-1.146528 -1.396116,-2.687825 -2.371616,-8.149414 -2.394382,-13.405556 -0.01885,-4.351232 0.837159,-9.035542 1.37675,-7.533979 0.07975,0.221936 0.44948,0.323899 0.821615,0.226586 0.51655,-0.135082 1.013266,-1.244766 2.099752,-4.690936 1.846083,-5.8555 1.862173,-6.935735 0.07855,-5.27404 -0.424642,0.395614 -0.772076,0.633443 -0.772076,0.52851 0,-0.104934 0.781733,-1.831846 1.737185,-3.837584 1.888839,-3.965155 4.603892,-7.624174 8.1771,-11.020097 2.39837,-2.279376 6.51554,-5.440128 7.08627,-5.440128 0.18831,0 1.17946,-0.555625 2.20257,-1.234722 1.99149,-1.321876 3.29343,-1.689727 1.91443,-0.540903 l -0.83283,0.693818 1.26548,0.01174 c 0.69601,0.0065 2.83914,-0.465815 4.7625,-1.049489 5.13899,-1.559507 8.83299,-2.113774 14.08759,-2.113774 5.14323,0 8.44868,0.505983 13.91598,2.130194 3.92438,1.165847 6.02026,1.379673 5.32621,0.543394 -0.34414,-0.41466 -0.27792,-0.465267 0.38273,-0.292503 0.43938,0.1149 1.30818,0.538973 1.93067,0.942384 0.62249,0.403411 2.31861,1.48661 3.76915,2.407108 4.02063,2.551453 9.37219,8.105587 11.83739,12.285478 1.916,3.248667 3.23442,6.830234 2.0948,5.690612 -0.60131,-0.601313 -1.34055,-0.52414 -1.34055,0.139948 0,0.922461 2.83616,9.634255 3.21212,9.866608 0.19061,0.117803 0.54976,0.04555 0.79811,-0.16057 0.66673,-0.553336 1.28143,0.223435 1.28143,1.619292 0,0.640292 0.15875,1.164167 0.35278,1.164167 0.49896,0 0.47128,9.410122 -0.0286,9.719056 -0.20975,0.129632 -0.2913,0.594537 -0.18122,1.033124 0.11008,0.438587 -0.17971,2.048457 -0.64396,3.577488 -0.91452,3.011946 -1.93249,5.516213 -1.95465,4.808527 -0.008,-0.242535 -0.31761,-0.440972 -0.68892,-0.440972 -0.49247,0 -1.17495,0.930532 -2.5227,3.439583 -1.01618,1.891771 -2.69676,4.734049 -3.73462,6.316176 -1.03786,1.582127 -1.88702,3.050565 -1.88702,3.263194 0,0.21263 0.31751,0.386603 0.70556,0.386603 1.46306,0 0.663,1.368368 -2.65427,4.539703 -1.84791,1.766612 -3.87197,3.470998 -4.49792,3.787528 -0.62595,0.31653 -1.65446,0.96205 -2.28557,1.43449 -0.63112,0.472436 -1.663,1.036336 -2.29306,1.253116 -0.63007,0.21677 -1.70119,0.75636 -2.38029,1.19909 -2.47309,1.6123 -9.80389,3.76657 -14.2875,4.1986 -4.33517,0.41772 -6.42625,0.48043 -7.05556,0.21158 z m -14.38304,-5.54836 c -0.11723,-0.11723 -0.4215,-0.12976 -0.67616,-0.0278 -0.28142,0.11262 -0.19783,0.19621 0.21314,0.21314 0.37188,0.0153 0.58024,-0.0681 0.46302,-0.18529 z m 9.64476,-18.155526 0.72977,-0.729774 -1.41086,-1.828733 c -1.51325,-1.961466 -2.51745,-4.023766 -1.72331,-3.539148 0.24195,0.147648 1.281,0.951678 2.30901,1.786735 2.33183,1.894152 4.61501,3.063706 7.37923,3.779986 2.31649,0.600262 7.50861,0.759618 7.50861,0.230452 0,-0.178584 -1.07156,-0.436898 -2.38125,-0.57403 -4.64286,-0.486142 -8.70479,-2.26302 -11.0547,-4.835842 -1.03309,-1.13108 -1.33142,-2.02654 -0.67516,-2.02654 0.61694,0 0.3885,-0.787488 -1.01969,-3.515144 -1.62498,-3.147576 -2.02784,-4.678141 -1.37414,-5.220667 0.26791,-0.222345 2.61798,-0.429814 5.63174,-0.497184 2.84459,-0.06359 5.24411,-0.194991 5.33227,-0.292005 0.0882,-0.09701 0.23585,-1.406701 0.32819,-2.910417 l 0.16789,-2.734027 h -5.92342 c -3.56841,0 -6.01011,-0.140258 -6.14145,-0.352778 -0.26565,-0.429832 -1.67243,-0.465642 -2.13431,-0.05433 -0.18433,0.164148 -1.80358,0.818614 -3.59833,1.454373 l -3.2632,1.155922 0.005,2.514381 c 0.0102,4.904832 1.59054,9.329248 4.85524,13.592751 1.63778,2.138832 4.97576,5.325794 5.57817,5.325794 0.0796,0 0.4731,-0.328397 0.87448,-0.729773 z m 5.89898,-37.33286 c 2.12201,-1.071188 6.49667,-2.154034 8.70221,-2.154034 1.30126,0 1.70411,-0.530036 0.63223,-0.831835 -2.80444,-0.78962 -6.00249,-0.447928 -9.10605,0.972928 -2.44745,1.120481 -5.61883,4.11223 -6.7679,6.384576 l -0.89233,1.764609 2.68546,-2.547948 c 1.477,-1.40137 3.61287,-3.016104 4.74638,-3.588296 z m -12.0932,3.950412 c 0.5801,-0.52311 2.04254,-1.862962 3.24987,-2.97745 2.68371,-2.477337 2.74872,-2.50799 11.91597,-5.618771 8.89751,-3.019253 9.97164,-3.715616 6.35932,-4.122777 -1.87333,-0.211152 -2.05017,-0.409627 -2.09366,-2.349784 l -0.0323,-1.442609 h -4.05695 -4.05694 l -0.10283,2.72248 -0.10282,2.72248 -2.46465,1.295136 c -2.90721,1.527696 -6.82917,5.040342 -8.52903,7.6389 -2.02093,3.089363 -2.05388,3.906991 -0.0859,2.132395 z"
         style="fill:#e0a80a;stroke-width:0.352778" />
      <path
         id="path844"
         d="m 131.15787,106.70358 c -0.26325,-0.1668 -0.33127,-0.39435 -0.15117,-0.50566 0.41345,-0.25553 4.7414,-0.24646 5.15766,0.0108 0.62779,0.388 -0.70189,0.79813 -2.58757,0.79813 -1.06716,0 -2.15567,-0.13647 -2.41892,-0.30327 z m 7.52467,-0.40688 c -0.11468,-0.18555 0.11836,-0.33737 0.51787,-0.33737 0.85181,0 0.93774,0.19618 0.20851,0.47602 -0.28483,0.10929 -0.6117,0.0469 -0.72638,-0.13865 z m -13.28579,-0.57836 c 0.25466,-0.1019 0.55893,-0.0894 0.67616,0.0278 0.11722,0.11722 -0.0911,0.2006 -0.46302,0.18528 -0.41097,-0.0169 -0.49456,-0.10052 -0.21314,-0.21313 z m 15.875,0 c 0.25466,-0.1019 0.55893,-0.0894 0.67616,0.0278 0.11722,0.11722 -0.0911,0.2006 -0.46302,0.18528 -0.41097,-0.0169 -0.49456,-0.10052 -0.21314,-0.21313 z m 1.76389,-0.35278 c 0.25466,-0.1019 0.55893,-0.0894 0.67616,0.0278 0.11722,0.11722 -0.0911,0.2006 -0.46302,0.18528 -0.41097,-0.0169 -0.49456,-0.10052 -0.21314,-0.21313 z m 1.41111,-0.35277 c 0.25466,-0.10191 0.55893,-0.0894 0.67616,0.0278 0.11722,0.11723 -0.0911,0.2006 -0.46302,0.18529 -0.41097,-0.0169 -0.49456,-0.10052 -0.21314,-0.21314 z m -18.04713,-1.38067 c -5.6685,-1.02414 -11.44277,-3.42986 -16.81217,-7.004417 C 102.2955,91.773258 95.611707,81.587399 92.99611,71.34312 92.055206,67.657965 91.986239,60.717637 92.845871,56.224207 95.133978,44.263924 101.06922,34.860219 110.09552,28.894126 c 7.10098,-4.693516 13.57044,-6.7857 22.07015,-7.137352 11.50661,-0.476054 23.12818,4.06281 31.41519,12.26936 4.76821,4.721913 9.03658,13.320456 10.7268,21.608903 0.79159,3.881769 1.06481,9.785738 0.59233,12.79972 -1.51295,9.651305 -8.50038,21.719932 -15.75736,27.215981 -4.82564,3.654682 -13.16234,7.184712 -19.33303,8.186222 -3.05825,0.49636 -10.12653,0.38839 -13.40998,-0.20484 z m 13.11135,-12.136681 c 0.14829,-1.615486 0.44544,-1.870689 2.44589,-2.10063 l 1.67409,-0.192426 V 84.96905 80.735716 l -1.23472,0.08152 c -4.57212,0.301882 -10.01804,-1.809281 -13.40556,-5.196802 -2.23981,-2.239814 -4.73074,-6.725758 -4.52855,-8.155524 l 0.11883,-0.840309 5.88243,-0.0966 5.88243,-0.0966 0.12159,-2.90201 c 0.0669,-1.596104 -0.02,-3.100444 -0.19299,-3.342979 -0.22957,-0.321822 -1.86551,-0.440972 -6.05447,-0.440972 -6.58519,0 -6.57034,0.0077 -5.48608,-2.845852 2.16342,-5.693661 7.11392,-9.868489 13.21137,-11.141346 1.3809,-0.288266 3.2251,-0.473761 4.09822,-0.412211 l 1.5875,0.111908 0.0986,-4.26286 0.0986,-4.26286 -2.03886,-0.323251 -2.03886,-0.323251 -0.10555,-1.627253 -0.10554,-1.627252 -2.15107,-0.224831 c -2.71007,-0.283259 -5.00144,-0.287542 -5.72288,-0.0107 -0.42728,0.163963 -0.55802,0.735787 -0.55802,2.440593 0,1.224553 -0.0965,2.477905 -0.21442,2.785227 -0.11793,0.307322 -1.26886,1.112981 -2.55764,1.790352 -8.11891,4.267262 -13.06513,12.361303 -13.69477,22.410253 -0.28301,4.516857 0.48656,8.32316 2.53061,12.51639 2.56311,5.258054 5.69098,8.498639 11.25029,11.655683 l 2.50954,1.425123 0.10387,2.554686 0.10388,2.554683 4.12946,-0.09925 4.12946,-0.09925 z m -31.69367,6.871092 c -0.37281,-0.44921 -0.35098,-0.500832 0.1332,-0.315035 0.31848,0.122213 0.57906,0.363972 0.57906,0.537242 0,0.453658 -0.20421,0.389947 -0.71226,-0.222207 z m 51.86504,-0.457077 c 0,-0.42635 0.66929,-0.923428 0.91394,-0.67878 0.0888,0.08879 -0.0805,0.362254 -0.37624,0.607688 -0.33528,0.278254 -0.5377,0.305019 -0.5377,0.07109 z m -53.47935,-0.820903 c -0.66844,-0.752832 -0.66778,-0.754656 0.12171,-0.340367 0.43656,0.22909 0.79375,0.569686 0.79375,0.756888 0,0.50117 -0.16887,0.424339 -0.91546,-0.416521 z m 55.24324,-0.519018 c 0,-0.45588 2.05198,-2.434149 2.28409,-2.202039 0.0961,0.09613 -0.37846,0.71101 -1.05465,1.366401 -0.67619,0.65539 -1.22944,1.031427 -1.22944,0.835638 z m -58.74854,-2.659062 -2.10563,-2.171079 2.20486,1.662532 c 1.21268,0.914389 2.20486,1.891376 2.20486,2.171079 0,0.2797 -0.0446,0.508547 -0.0992,0.508547 -0.0546,0 -1.04677,-0.976986 -2.20486,-2.171079 z m 73.59306,-22.376374 c 0.0169,-0.410969 0.10052,-0.494559 0.21313,-0.213138 0.10191,0.25466 0.0894,0.558931 -0.0278,0.676159 -0.11723,0.117224 -0.2006,-0.09114 -0.18529,-0.463021 z M 90.565746,70.828541 c 0.01693,-0.410968 0.100521,-0.494559 0.213137,-0.213138 0.101907,0.25466 0.08937,0.558931 -0.02785,0.676159 -0.117225,0.117225 -0.200603,-0.09114 -0.185287,-0.463021 z M 176.2629,69.446827 c 0,-0.595803 0.16169,-0.886845 0.44097,-0.79375 0.24254,0.08085 0.44097,0.438034 0.44097,0.79375 0,0.355716 -0.19843,0.712904 -0.44097,0.79375 -0.27928,0.0931 -0.44097,-0.197947 -0.44097,-0.79375 z M 90.098439,68.829466 c -0.228008,-0.620018 0.08293,-1.366869 0.469587,-1.127905 0.415523,0.256805 0.421889,1.568877 0.0076,1.568877 -0.173269,0 -0.388009,-0.198437 -0.4772,-0.440972 z M 176.81484,66.53641 c 0.15477,-0.533576 0.30309,-2.594846 0.32959,-4.580601 0.0265,-1.985751 0.1565,-3.718771 0.28888,-3.851155 0.13239,-0.132383 0.2407,1.928887 0.2407,4.580598 0,4.204938 -0.0729,4.821297 -0.57029,4.821297 -0.45518,0 -0.51349,-0.19583 -0.28888,-0.970139 z M 89.720627,65.866132 c -0.364923,-0.364924 -0.288717,-5.696825 0.08472,-5.927622 0.185715,-0.11478 0.378644,1.05175 0.44873,2.713206 0.118929,2.819365 -0.03016,3.71771 -0.53345,3.214416 z M 170.08733,38.929385 c -0.35226,-0.389245 -0.55712,-0.791074 -0.45524,-0.892954 0.10188,-0.101879 0.44852,0.216594 0.77032,0.707719 0.70308,1.073043 0.56294,1.155435 -0.31508,0.185235 z M 97.570859,37.78502 c 1.683122,-2.337492 3.871481,-4.720563 3.888111,-4.234047 0.008,0.242142 -0.6241,1.115267 -1.40527,1.940277 -0.781174,0.825012 -1.773362,2.014873 -2.204865,2.644138 -0.431503,0.629264 -0.913477,1.145202 -1.071054,1.146528 -0.157577,0.0013 0.199308,-0.672277 0.793078,-1.496896 z M 167.779,36.15717 c -1.16054,-1.200061 -1.52513,-1.811733 -1.07988,-1.811733 0.38875,0 2.33925,2.410046 2.11644,2.615085 -0.0756,0.06954 -0.54201,-0.291969 -1.03656,-0.803352 z m -3.28063,-3.787224 c -0.9388,-1.288612 -0.52953,-1.374453 0.65555,-0.137496 0.64496,0.673187 0.82705,1.050644 0.50345,1.043568 -0.27883,-0.0061 -0.80038,-0.41383 -1.159,-0.906072 z"
         style="fill:#af8f0f;stroke-width:0.352778" />
      <path
         id="path846"
         d="M 130.75456,103.95688 C 120.99648,103.13035 110.85047,98.511201 104.8058,92.143241 97.677952,84.634168 93.174611,75.125519 92.454728,66.064383 91.800915,57.834867 94.8423,46.871897 99.882451,39.290427 c 2.246209,-3.378782 4.408909,-5.689203 7.728909,-8.25684 5.31791,-4.112775 9.44498,-6.183547 15.60393,-7.829322 4.7067,-1.257708 12.85682,-1.579667 17.59344,-0.695005 16.04612,2.996951 27.60367,13.397178 32.22878,29.001527 3.75484,12.668235 1.68299,24.263441 -6.35165,35.54719 -5.23346,7.349812 -11.44089,11.918552 -20.12814,14.814543 -4.7988,1.59972 -11.33963,2.46243 -15.80316,2.08436 z m 8.81945,-12.241858 c 0,-1.499743 0.49162,-1.906207 2.47636,-2.047413 l 1.58058,-0.112448 0.0987,-4.497917 0.0987,-4.497917 -2.39179,-0.0042 c -4.69127,-0.0082 -8.91946,-1.769981 -12.26638,-5.11108 -2.22473,-2.220863 -4.41291,-6.042776 -4.41291,-7.707679 v -0.918316 l 5.90903,-0.09673 5.90903,-0.09672 0.10097,-3.439584 0.10096,-3.439583 -5.74541,-0.0054 c -3.15997,-0.0028 -5.98323,-0.155744 -6.27391,-0.339495 -0.4644,-0.293575 -0.44816,-0.560314 0.13392,-2.199461 2.4545,-6.911981 9.08938,-11.566758 16.48716,-11.566758 h 2.36241 l 0.24144,-3.263194 c 0.1328,-1.794757 0.1873,-3.81882 0.12112,-4.497917 -0.11022,-1.130994 -0.22406,-1.242723 -1.35505,-1.329952 -2.64297,-0.203844 -2.77489,-0.300192 -2.89117,-2.111521 l -0.10744,-1.673805 h -4.40973 -4.40972 l -0.10304,2.734432 -0.10304,2.734432 -1.48446,0.754806 c -8.35668,4.249139 -13.62208,12.016557 -14.70023,21.685487 -1.16466,10.444777 3.99594,20.406731 13.2571,25.591316 l 2.78089,1.556798 0.0972,2.104697 c 0.0534,1.157587 0.16753,2.303138 0.25351,2.545673 0.11333,0.31968 1.32377,0.440972 4.40073,0.440972 h 4.24441 z m 37.86298,-26.501528 c 0.001,-1.358195 0.0653,-1.870591 0.1417,-1.138661 0.0764,0.731932 0.0751,1.843182 -0.003,2.469444 -0.0779,0.626265 -0.14042,0.02741 -0.13885,-1.330783 z m -0.0148,-5.644445 c 0.003,-0.970139 0.0712,-1.325143 0.15225,-0.788899 0.0811,0.536243 0.0789,1.329993 -0.005,1.763889 -0.0837,0.433895 -0.15008,-0.0049 -0.14743,-0.97499 z"
         style="fill:#987105;stroke-width:0.352778" />
      <path
         id="path848"
         d="m 129.69623,103.65714 c -0.29104,-0.057 -1.71979,-0.29575 -3.175,-0.5305 -16.72795,-2.69851 -30.330437,-16.513353 -33.3701,-33.891067 -1.650608,-9.436506 1.020687,-21.05034 6.814926,-29.628855 5.089634,-7.535326 12.603524,-12.992092 21.792674,-15.826345 18.78753,-5.794731 39.92962,3.211272 48.33384,20.589019 3.09121,6.391813 4.40644,11.981547 4.40644,18.727435 0,10.307835 -3.41526,18.926482 -10.98517,27.721808 -5.26656,6.119121 -14.84907,11.144455 -23.83277,12.498575 -3.03185,0.45699 -8.44649,0.64133 -9.98484,0.33993 z m 10.23056,-11.985312 c 0.17465,-1.397212 0.1955,-1.414773 2.11666,-1.782872 l 1.94028,-0.371765 v -4.567124 -4.567129 l -3.60217,-0.218863 c -3.15827,-0.19189 -3.93351,-0.376213 -6.2909,-1.495732 -4.45536,-2.115841 -8.83719,-7.260992 -9.08289,-10.665139 l -0.074,-1.025822 5.99722,-0.176388 5.99722,-0.176389 0.10221,-3.321908 c 0.0745,-2.419762 -0.0213,-3.400301 -0.35277,-3.610571 -0.25025,-0.158764 -3.03468,-0.291095 -6.18763,-0.294065 -6.66879,-0.0063 -6.53324,0.100563 -4.72409,-3.72358 1.57278,-3.324518 4.50808,-6.240059 8.04868,-7.994494 2.74707,-1.361225 3.25693,-1.490946 6.57361,-1.672477 l 3.59555,-0.196795 0.0983,-4.651178 0.0983,-4.651179 -1.68578,-0.225851 c -2.54482,-0.340942 -2.56771,-0.359318 -2.56771,-2.061242 0,-1.316897 -0.12259,-1.590279 -0.79375,-1.770144 -1.14502,-0.306851 -7.41879,-0.260964 -7.92048,0.05793 -0.24997,0.158895 -0.46712,1.339783 -0.52916,2.877695 l -0.10523,2.608217 -2.99861,1.761445 c -3.69489,2.170452 -7.46354,5.862989 -9.49871,9.306856 -4.33778,7.340291 -5.08626,16.76403 -1.94893,24.537901 2.02773,5.024417 6.80051,10.319523 11.526,12.787394 1.41212,0.737468 2.68411,1.513519 2.82666,1.724562 0.14255,0.211038 0.26161,1.349435 0.26458,2.529769 0.003,1.180338 0.11587,2.256536 0.25089,2.391555 0.13502,0.135019 2.15908,0.201164 4.49792,0.146992 l 4.25243,-0.0985 z m 37.46322,-25.047223 c 0.007,-0.582084 0.0863,-0.777501 0.17569,-0.434259 0.0894,0.343242 0.0836,0.819492 -0.0131,1.058333 -0.0966,0.238841 -0.16981,-0.04199 -0.16262,-0.624074 z m 0,-7.761112 c 0.007,-0.582083 0.0863,-0.777501 0.17569,-0.434259 0.0894,0.343243 0.0836,0.819493 -0.0131,1.058334 -0.0966,0.238841 -0.16981,-0.04199 -0.16262,-0.624075 z"
         style="fill:#685106;stroke-width:0.352778" />
      <path
         id="path850"
         d="M 130.2254,103.26463 C 115.09734,101.55594 103.42584,93.417136 97.073128,80.1468 91.969309,69.485297 91.791671,57.965095 96.554673,46.523851 99.816932,38.687554 107.28295,30.784535 115.21984,26.766179 c 21.05634,-10.660579 47.34143,-0.891011 55.91531,20.782446 2.56709,6.489196 3.60422,14.626771 2.68286,21.050325 -1.59548,11.123454 -8.5178,21.965498 -17.94959,28.113451 -7.54062,4.915219 -17.53245,7.468309 -25.64302,6.552229 z m 10.05416,-11.222619 c 0.17418,-1.37626 0.20067,-1.398337 2.11667,-1.763888 l 1.94028,-0.370184 V 84.96905 80.030161 l -3.52778,-0.230918 c -5.34477,-0.349853 -8.16197,-1.619144 -11.60473,-5.228523 -1.79221,-1.878948 -4.45872,-6.464145 -4.01643,-6.90644 0.0881,-0.08814 2.75686,-0.248673 5.93051,-0.356754 3.17364,-0.108081 5.89829,-0.275632 6.05476,-0.372339 0.46666,-0.288414 0.34212,-6.991015 -0.13883,-7.471971 -0.29463,-0.29463 -2.17155,-0.423334 -6.17361,-0.423334 -4.36688,0 -5.74945,-0.106091 -5.74683,-0.440972 0.006,-0.745109 1.68564,-4.10203 2.89618,-5.787679 0.63113,-0.878834 2.06363,-2.286544 3.18334,-3.128244 2.92447,-2.198359 5.40391,-3.050791 9.61564,-3.305852 l 3.52778,-0.213642 0.0988,-4.734205 c 0.0544,-2.603812 -0.043,-4.876057 -0.21638,-5.049432 -0.17337,-0.173375 -1.09098,-0.425355 -2.03913,-0.559956 -1.71064,-0.242845 -1.72472,-0.255561 -1.83009,-1.653345 -0.0592,-0.785196 -0.36226,-1.603782 -0.68479,-1.84959 -0.60254,-0.459227 -7.62285,-0.642163 -8.70516,-0.22684 -0.44351,0.170188 -0.55802,0.784517 -0.55802,2.993533 v 2.7794 l -2.07075,1.045309 c -6.31458,3.18759 -11.42648,9.553672 -13.53334,16.853684 -1.16467,4.035418 -1.15153,11.507227 0.0268,15.259844 2.23964,7.132356 6.72716,12.603114 13.10989,15.982337 l 2.29098,1.212913 0.0966,2.256508 c 0.0531,1.241079 0.16898,2.459574 0.25746,2.707771 0.12214,0.342632 1.28777,0.427552 4.8423,0.352778 l 4.68142,-0.09848 z"
         style="fill:#010100;stroke-width:0.352778" />
    </g>
  </g>
</svg>
