<?xml version="1.0" encoding="UTF-8" standalone="no"?>
<svg
   xmlns:dc="http://purl.org/dc/elements/1.1/"
   xmlns:cc="http://creativecommons.org/ns#"
   xmlns:rdf="http://www.w3.org/1999/02/22-rdf-syntax-ns#"
   xmlns:svg="http://www.w3.org/2000/svg"
   xmlns="http://www.w3.org/2000/svg"
   xmlns:sodipodi="http://sodipodi.sourceforge.net/DTD/sodipodi-0.dtd"
   xmlns:inkscape="http://www.inkscape.org/namespaces/inkscape"
   id="ic_staking_on"
   width="100"
   height="100"
   viewBox="0 0 100 100"
   version="1.1"
   sodipodi:docname="img-empty-staking-on1.svg"
   inkscape:version="1.0 (4035a4fb49, 2020-05-01)">
  <metadata
     id="metadata1002">
    <rdf:RDF>
      <cc:Work
         rdf:about="">
        <dc:format>image/svg+xml</dc:format>
        <dc:type
           rdf:resource="http://purl.org/dc/dcmitype/StillImage" />
        <dc:title></dc:title>
      </cc:Work>
    </rdf:RDF>
  </metadata>
  <sodipodi:namedview
     inkscape:document-rotation="0"
     pagecolor="#ffffff"
     bordercolor="#666666"
     borderopacity="1"
     objecttolerance="10"
     gridtolerance="10"
     guidetolerance="10"
     inkscape:pageopacity="0"
     inkscape:pageshadow="2"
     inkscape:window-width="1920"
     inkscape:window-height="1017"
     id="namedview1000"
     showgrid="false"
     inkscape:zoom="8.5"
     inkscape:cx="50"
     inkscape:cy="50"
     inkscape:window-x="-8"
     inkscape:window-y="-8"
     inkscape:window-maximized="1"
     inkscape:current-layer="Group_9017" />
  <defs
     id="defs986">
    <style
       type="text/css"
       id="style984">
            .cls-1{fill:#d6d6d6}.cls-2{fill:#666}.cls-3{fill:none}
        </style>
  </defs>
  <g
     id="Group_9018"
     data-name="Group 9018">
    <g
       id="Group_9016"
       data-name="Group 9016">
      <ellipse
         id="Ellipse_613"
         cx="12"
         cy="4"
         class="cls-1"
         data-name="Ellipse 613"
         rx="12"
         ry="4"
         transform="translate(68 52)" />
      <ellipse
         id="Ellipse_614"
         cx="12"
         cy="4"
         class="cls-1"
         data-name="Ellipse 614"
         rx="12"
         ry="4"
         transform="translate(52 64)" />
      <path
         id="Rectangle_4669"
         d="M0 0h14v14H0z"
         class="cls-1"
         data-name="Rectangle 4669"
         transform="translate(32 24)" />
    </g>
    <g
       id="Group_9017"
       data-name="Group 9017">
      <path
         id="Rectangle_4670"
         d="M0 0h2v4H0z"
         class="cls-2"
         data-name="Rectangle 4670"
         transform="translate(12 60)" />
      <path
         id="Path_18975"
         d="M92.046 57.994A2.767 2.767 0 0 0 93 56c0-3.283-6.54-5-13-5s-13 1.717-13 5a2.767 2.767 0 0 0 .954 1.994 2.573 2.573 0 0 0 0 4 3.171 3.171 0 0 0-.774 1.151q-.58-.052-1.18-.085V39h5V23H52.644A8.993 8.993 0 1 0 39 11.9 8.994 8.994 0 1 0 25.356 23H7v16h5v17h2V39h50v24c-6.46 0-13 1.717-13 5a2.767 2.767 0 0 0 .954 1.994 2.573 2.573 0 0 0 0 4A3.325 3.325 0 0 0 51.226 75H14v-7h-2v9h39.23a3.369 3.369 0 0 0 .724.994 2.573 2.573 0 0 0 0 4 2.573 2.573 0 0 0 0 4A2.768 2.768 0 0 0 51 88c0 3.283 6.54 5 13 5 5.874 0 11.8-1.424 12.826-4.15 1.042.093 2.106.15 3.174.15 6.46 0 13-1.717 13-5a2.768 2.768 0 0 0-.954-2.006 2.573 2.573 0 0 0 0-4 2.573 2.573 0 0 0 0-4 2.573 2.573 0 0 0 0-4 2.573 2.573 0 0 0 0-4 2.573 2.573 0 0 0 0-4 2.573 2.573 0 0 0 0-4zM31 37H9V25h22zm-7-21a7 7 0 0 1 14 0v7h-7a7.008 7.008 0 0 1-7-7zm21 21H33V25h12zm-5-14v-7a7 7 0 1 1 7 7zm7 14V25h22v12H47zm4 39a2.311 2.311 0 0 0 .061.515A2.2 2.2 0 0 1 51 76zm13 15c-7.117 0-11-1.982-11-3 0-.241.247-.539.678-.849C56.179 88.37 60.1 89 64 89s7.821-.63 10.322-1.849c.431.31.678.608.678.849 0 1.018-3.883 3-11 3zm0-4c-7.117 0-11-1.982-11-3 0-.241.247-.539.678-.849C56.179 84.37 60.1 85 64 85s7.821-.63 10.322-1.849c.431.31.678.608.678.849 0 1.018-3.883 3-11 3zm0-4c-7.117 0-11-1.982-11-3 0-.241.247-.539.678-.849C56.179 80.37 60.1 81 64 81s7.821-.63 10.322-1.849c.431.31.678.608.678.849 0 1.018-3.883 3-11 3zm0-4c-7.117 0-11-1.982-11-3 0-.241.247-.539.678-.849C56.179 76.37 60.1 77 64 77s7.821-.63 10.322-1.849c.431.31.678.608.678.849 0 1.018-3.883 3-11 3zm0-4c-7.117 0-11-1.982-11-3 0-.241.247-.539.678-.849C56.179 72.37 60.1 73 64 73s7.821-.63 10.322-1.849c.431.31.678.608.678.849 0 1.018-3.883 3-11 3zm0-4c-7.117 0-11-1.982-11-3s3.883-3 11-3 11 1.982 11 3-3.883 3-11 3zm16 16c-1.207 0-2.3-.068-3.313-.168a3.446 3.446 0 0 0-.641-.838 3.219 3.219 0 0 0 .781-1.151c1.041.1 2.1.157 3.173.157 3.9 0 7.821-.63 10.322-1.849.431.31.678.608.678.849 0 1.018-3.883 3-11 3zm0-4c-1.207 0-2.3-.068-3.313-.168a3.446 3.446 0 0 0-.641-.838 3.219 3.219 0 0 0 .781-1.151c1.041.1 2.1.157 3.173.157 3.9 0 7.821-.63 10.322-1.849.431.31.678.608.678.849 0 1.018-3.883 3-11 3zm0-4c-1.207 0-2.3-.068-3.313-.168a3.446 3.446 0 0 0-.641-.838 3.219 3.219 0 0 0 .781-1.151c1.041.1 2.1.157 3.173.157 3.9 0 7.821-.63 10.322-1.849.431.31.678.608.678.849 0 1.018-3.883 3-11 3zm0-4c-1.207 0-2.3-.068-3.313-.168a3.446 3.446 0 0 0-.641-.838 3.219 3.219 0 0 0 .781-1.151c1.041.1 2.1.157 3.173.157 3.9 0 7.821-.63 10.322-1.849.431.31.678.608.678.849 0 1.018-3.883 3-11 3zm0-4c-1.207 0-2.3-.068-3.313-.168a3.446 3.446 0 0 0-.641-.838 3.219 3.219 0 0 0 .781-1.151c1.041.1 2.1.157 3.173.157 3.9 0 7.821-.63 10.322-1.849.431.31.678.608.678.849 0 1.018-3.883 3-11 3zm0-4c-1.2 0-2.287-.067-3.3-.166-.621-1.162-2.175-2.062-4.213-2.7A31.139 31.139 0 0 0 80 65c3.9 0 7.821-.63 10.322-1.849.431.31.678.608.678.849 0 1.018-3.883 3-11 3zm-10.632-3.583a2.722 2.722 0 0 1 .31-.266 13.563 13.563 0 0 0 1.826.7 26.483 26.483 0 0 0-2.136-.434zM80 63c-7.117 0-11-1.982-11-3 0-.241.247-.539.678-.849C72.179 60.37 76.1 61 80 61s7.821-.63 10.322-1.849c.431.31.678.608.678.849 0 1.018-3.883 3-11 3zm0-4c-7.117 0-11-1.982-11-3s3.883-3 11-3 11 1.982 11 3-3.883 3-11 3z"
         class="cls-2"
         data-name="Path 18975" />
      <path
         style="fill:#666666;fill-opacity:1;stroke-width:0.147759"
         d="m 39.909074,71.67838 -0.0097,-1.49699 -1.518954,-0.797077 c -7.187174,-3.771506 -9.548994,-12.847841 -5.193909,-19.959882 1.301668,-2.125677 3.282768,-3.958459 5.630172,-5.208659 l 1.102029,-0.586929 v -1.578474 -1.578473 h 2.488455 2.488455 v 0.977902 0.977906 l 0.533241,0.09516 c 0.293282,0.05234 0.805193,0.09592 1.137579,0.09687 l 0.604339,0.0017 v 1.512852 c 0,0.832068 0.04111,1.937538 0.09135,2.4566 l 0.09135,0.943747 -1.548878,0.0021 c -1.906534,0.0027 -3.028992,0.273259 -4.606125,1.109885 -2.085072,1.106076 -4.117123,3.646807 -4.667102,5.835415 l -0.144686,0.575765 h 3.472375 3.472375 v 1.911194 1.911194 l -3.263713,0.04641 c -2.132813,0.03033 -3.317918,0.105047 -3.420149,0.215624 -0.334941,0.362302 0.760566,2.667624 1.915704,4.031293 0.689048,0.813439 1.426681,1.373071 2.767404,2.099594 1.314008,0.712044 2.554704,0.986954 4.469158,0.99026 l 1.544121,0.0026 -0.05232,2.316447 c -0.0617,2.73136 -0.07201,2.750281 -1.498924,2.750281 h -0.897105 v 0.921226 0.921224 h -2.488455 -2.488455 l -0.0097,-1.496989 z"
         id="path2277" />
      <path
         id="path2277-7"
         d="m 71.878445,55.810498 0.818445,-0.0021 0.435782,-0.338842 c 2.061984,-1.603285 7.024256,-2.130151 10.912598,-1.158636 1.162165,0.290371 2.164195,0.732307 2.847713,1.255956 l 0.320889,0.245836 h 0.862994 0.862994 v 0.555114 0.555114 h -0.534646 -0.534646 l -0.05203,0.118953 c -0.0286,0.06542 -0.05244,0.17962 -0.05296,0.253768 l -9.28e-4,0.134813 h -0.827117 c -0.454915,0 -1.059304,0.0092 -1.343088,0.02038 l -0.515973,0.02038 -0.0011,-0.345517 c -0.0015,-0.425302 -0.149407,-0.675695 -0.606805,-1.027516 -0.604721,-0.465129 -1.993805,-0.918431 -3.190377,-1.041118 l -0.314785,-0.03228 v 0.774603 0.774604 h -1.04491 -1.0449 l -0.02538,-0.728056 c -0.01658,-0.475779 -0.05744,-0.740147 -0.117887,-0.762953 -0.19808,-0.07471 -1.458461,0.169664 -2.204016,0.427347 -0.444728,0.153711 -0.750693,0.318259 -1.147902,0.617341 -0.389295,0.293124 -0.539594,0.569893 -0.541402,0.996962 l -0.0014,0.344456 -1.266463,-0.01167 c -1.493307,-0.01376 -1.503652,-0.01606 -1.503652,-0.334374 v -0.200122 h -0.503658 -0.503658 v -0.555115 -0.555114 l 0.818444,-0.0021 z"
         style="fill:#666666;fill-opacity:1;stroke-width:0.0516018" />
      <path
         style="fill:#666666;fill-opacity:1;stroke-width:0.0516018"
         d="m 56.231368,67.692779 0.818445,-0.0021 0.435782,-0.338842 c 2.061984,-1.603285 7.024256,-2.130151 10.912598,-1.158636 1.162165,0.290371 2.164195,0.732307 2.847713,1.255956 l 0.320889,0.245836 h 0.862994 0.862994 v 0.555114 0.555114 h -0.534646 -0.534646 l -0.05203,0.118953 c -0.0286,0.06542 -0.05244,0.17962 -0.05296,0.253768 l -9.28e-4,0.134813 h -0.827117 c -0.454915,0 -1.059304,0.0092 -1.343088,0.02038 l -0.515973,0.02038 -0.0011,-0.345517 c -0.0015,-0.425302 -0.149407,-0.675695 -0.606805,-1.027516 -0.604721,-0.465129 -1.993805,-0.918431 -3.190377,-1.041118 l -0.314785,-0.03228 v 0.774603 0.774604 h -1.04491 -1.0449 l -0.02538,-0.728056 c -0.01658,-0.475779 -0.05744,-0.740147 -0.117887,-0.762953 -0.19808,-0.07471 -1.458461,0.169664 -2.204016,0.427347 -0.444728,0.153711 -0.750693,0.318259 -1.147902,0.617341 -0.389295,0.293124 -0.539594,0.569893 -0.541402,0.996962 l -0.0014,0.344456 -1.266463,-0.01167 c -1.493307,-0.01376 -1.503652,-0.01606 -1.503652,-0.334374 V 68.805222 H 55.916758 55.4131 v -0.555115 -0.555114 l 0.818444,-0.0021 z"
         id="path2277-7-8" />
    </g>
  </g>
  <path
     id="Rectangle_4672"
     d="M0 0h100v100H0z"
     class="cls-3"
     data-name="Rectangle 4672" />
</svg>
