<?xml version="1.0" encoding="UTF-8" standalone="no"?>
<svg
   xmlns:dc="http://purl.org/dc/elements/1.1/"
   xmlns:cc="http://creativecommons.org/ns#"
   xmlns:rdf="http://www.w3.org/1999/02/22-rdf-syntax-ns#"
   xmlns:svg="http://www.w3.org/2000/svg"
   xmlns="http://www.w3.org/2000/svg"
   xmlns:sodipodi="http://sodipodi.sourceforge.net/DTD/sodipodi-0.dtd"
   xmlns:inkscape="http://www.inkscape.org/namespaces/inkscape"
   inkscape:version="1.0 (4035a4fb49, 2020-05-01)"
   sodipodi:docname="img-empty-dark-staking-on1.svg"
   version="1.1"
   viewBox="0 0 100 100"
   height="100"
   width="100"
   id="ic_dark_staking_on">
  <metadata
     id="metadata5445">
    <rdf:RDF>
      <cc:Work
         rdf:about="">
        <dc:format>image/svg+xml</dc:format>
        <dc:type
           rdf:resource="http://purl.org/dc/dcmitype/StillImage" />
        <dc:title></dc:title>
      </cc:Work>
    </rdf:RDF>
  </metadata>
  <sodipodi:namedview
     inkscape:current-layer="Group_9052"
     inkscape:window-maximized="0"
     inkscape:window-y="125"
     inkscape:window-x="582"
     inkscape:cy="50"
     inkscape:cx="50"
     inkscape:zoom="8.5"
     showgrid="false"
     id="namedview5443"
     inkscape:window-height="1040"
     inkscape:window-width="1256"
     inkscape:pageshadow="2"
     inkscape:pageopacity="0"
     guidetolerance="10"
     gridtolerance="10"
     objecttolerance="10"
     borderopacity="1"
     bordercolor="#666666"
     pagecolor="#ffffff"
     inkscape:document-rotation="0" />
  <defs
     id="defs5429">
    <style
       id="style5427"
       type="text/css">
            .cls-1{fill:#736412}.cls-2{fill:#c9b970}.cls-3{fill:none}
        </style>
  </defs>
  <g
     data-name="Group 9053"
     id="Group_9053">
    <g
       data-name="Group 9051"
       id="Group_9051">
      <ellipse
         transform="translate(68 52)"
         ry="4"
         rx="12"
         data-name="Ellipse 640"
         class="cls-1"
         cy="4"
         cx="12"
         id="Ellipse_640" />
      <ellipse
         transform="translate(52 64)"
         ry="4"
         rx="12"
         data-name="Ellipse 641"
         class="cls-1"
         cy="4"
         cx="12"
         id="Ellipse_641" />
      <path
         transform="translate(32 24)"
         data-name="Rectangle 4706"
         class="cls-1"
         d="M0 0h14v14H0z"
         id="Rectangle_4706" />
    </g>
    <g
       data-name="Group 9052"
       id="Group_9052">
      <path
         transform="translate(12 60)"
         data-name="Rectangle 4707"
         class="cls-2"
         d="M0 0h2v4H0z"
         id="Rectangle_4707" />
      <path
         data-name="Path 19001"
         class="cls-2"
         d="M92.046 57.994A2.767 2.767 0 0 0 93 56c0-3.283-6.54-5-13-5s-13 1.717-13 5a2.767 2.767 0 0 0 .954 1.994 2.573 2.573 0 0 0 0 4 3.171 3.171 0 0 0-.774 1.151q-.58-.052-1.18-.085V39h5V23H52.644A8.993 8.993 0 1 0 39 11.9 8.994 8.994 0 1 0 25.356 23H7v16h5v17h2V39h50v24c-6.46 0-13 1.717-13 5a2.767 2.767 0 0 0 .954 1.994 2.573 2.573 0 0 0 0 4A3.325 3.325 0 0 0 51.226 75H14v-7h-2v9h39.23a3.369 3.369 0 0 0 .724.994 2.573 2.573 0 0 0 0 4 2.573 2.573 0 0 0 0 4A2.768 2.768 0 0 0 51 88c0 3.283 6.54 5 13 5 5.874 0 11.8-1.424 12.826-4.15 1.042.093 2.106.15 3.174.15 6.46 0 13-1.717 13-5a2.768 2.768 0 0 0-.954-2.006 2.573 2.573 0 0 0 0-4 2.573 2.573 0 0 0 0-4 2.573 2.573 0 0 0 0-4 2.573 2.573 0 0 0 0-4 2.573 2.573 0 0 0 0-4 2.573 2.573 0 0 0 0-4zM31 37H9V25h22zm-7-21a7 7 0 0 1 14 0v7h-7a7.008 7.008 0 0 1-7-7zm21 21H33V25h12zm-5-14v-7a7 7 0 1 1 7 7zm7 14V25h22v12H47zm4 39a2.311 2.311 0 0 0 .061.515A2.2 2.2 0 0 1 51 76zm13 15c-7.117 0-11-1.982-11-3 0-.241.247-.539.678-.849C56.179 88.37 60.1 89 64 89s7.821-.63 10.322-1.849c.431.31.678.608.678.849 0 1.018-3.883 3-11 3zm0-4c-7.117 0-11-1.982-11-3 0-.241.247-.539.678-.849C56.179 84.37 60.1 85 64 85s7.821-.63 10.322-1.849c.431.31.678.608.678.849 0 1.018-3.883 3-11 3zm0-4c-7.117 0-11-1.982-11-3 0-.241.247-.539.678-.849C56.179 80.37 60.1 81 64 81s7.821-.63 10.322-1.849c.431.31.678.608.678.849 0 1.018-3.883 3-11 3zm0-4c-7.117 0-11-1.982-11-3 0-.241.247-.539.678-.849C56.179 76.37 60.1 77 64 77s7.821-.63 10.322-1.849c.431.31.678.608.678.849 0 1.018-3.883 3-11 3zm0-4c-7.117 0-11-1.982-11-3 0-.241.247-.539.678-.849C56.179 72.37 60.1 73 64 73s7.821-.63 10.322-1.849c.431.31.678.608.678.849 0 1.018-3.883 3-11 3zm0-4c-7.117 0-11-1.982-11-3s3.883-3 11-3 11 1.982 11 3-3.883 3-11 3zm16 16c-1.207 0-2.3-.068-3.313-.168a3.446 3.446 0 0 0-.641-.838 3.219 3.219 0 0 0 .781-1.151c1.041.1 2.1.157 3.173.157 3.9 0 7.821-.63 10.322-1.849.431.31.678.608.678.849 0 1.018-3.883 3-11 3zm0-4c-1.207 0-2.3-.068-3.313-.168a3.446 3.446 0 0 0-.641-.838 3.219 3.219 0 0 0 .781-1.151c1.041.1 2.1.157 3.173.157 3.9 0 7.821-.63 10.322-1.849.431.31.678.608.678.849 0 1.018-3.883 3-11 3zm0-4c-1.207 0-2.3-.068-3.313-.168a3.446 3.446 0 0 0-.641-.838 3.219 3.219 0 0 0 .781-1.151c1.041.1 2.1.157 3.173.157 3.9 0 7.821-.63 10.322-1.849.431.31.678.608.678.849 0 1.018-3.883 3-11 3zm0-4c-1.207 0-2.3-.068-3.313-.168a3.446 3.446 0 0 0-.641-.838 3.219 3.219 0 0 0 .781-1.151c1.041.1 2.1.157 3.173.157 3.9 0 7.821-.63 10.322-1.849.431.31.678.608.678.849 0 1.018-3.883 3-11 3zm0-4c-1.207 0-2.3-.068-3.313-.168a3.446 3.446 0 0 0-.641-.838 3.219 3.219 0 0 0 .781-1.151c1.041.1 2.1.157 3.173.157 3.9 0 7.821-.63 10.322-1.849.431.31.678.608.678.849 0 1.018-3.883 3-11 3zm0-4c-1.2 0-2.287-.067-3.3-.166-.621-1.162-2.175-2.062-4.213-2.7A31.139 31.139 0 0 0 80 65c3.9 0 7.821-.63 10.322-1.849.431.31.678.608.678.849 0 1.018-3.883 3-11 3zm-10.632-3.583a2.722 2.722 0 0 1 .31-.266 13.563 13.563 0 0 0 1.826.7 26.483 26.483 0 0 0-2.136-.434zM80 63c-7.117 0-11-1.982-11-3 0-.241.247-.539.678-.849C72.179 60.37 76.1 61 80 61s7.821-.63 10.322-1.849c.431.31.678.608.678.849 0 1.018-3.883 3-11 3zm0-4c-7.117 0-11-1.982-11-3s3.883-3 11-3 11 1.982 11 3-3.883 3-11 3z"
         id="Path_19001" />
      <path
         id="path7879"
         d="m 39.931419,71.66158 v -1.516301 l -0.970588,-0.499086 c -3.136737,-1.612937 -5.252287,-3.728025 -6.61875,-6.617303 -1.866018,-3.945549 -1.784582,-8.430623 0.225366,-12.411928 1.357148,-2.688237 3.189879,-4.573233 6.049402,-6.221913 l 1.255746,-0.72401 0.03273,-1.59952 0.03273,-1.599519 h 2.408445 2.408444 v 0.987413 c 0,0.728953 0.04232,1.003651 0.161656,1.049446 0.08891,0.03412 0.586667,0.09911 1.106126,0.144421 l 0.94447,0.08239 0.07233,1.721108 c 0.03978,0.946609 0.100536,2.025519 0.135011,2.397578 l 0.06268,0.676471 -1.505841,0.002 c -1.882284,0.0026 -2.830973,0.19881 -4.202238,0.869323 -1.705351,0.833873 -3.122381,2.153319 -4.168853,3.881769 -0.431031,0.711929 -0.88903,1.792436 -1.014723,2.393925 l -0.0799,0.382353 h 3.479936 3.479936 v 1.86382 1.863818 l -3.004474,0.08119 c -3.764874,0.101743 -3.701409,0.09035 -3.701409,0.664504 0,0.291549 0.180183,0.801368 0.524942,1.485294 1.064254,2.111249 2.296655,3.354235 4.339508,4.376778 1.264195,0.632788 2.143027,0.826678 4.164962,0.918885 l 1.676471,0.07646 -0.0089,0.834625 c -0.0049,0.459045 -0.04731,1.463548 -0.09423,2.232229 -0.106566,1.745821 -0.181462,1.837693 -1.498122,1.837693 h -0.86932 v 0.941176 0.941177 h -2.411778 -2.411765 z"
         style="fill:#c9b970;fill-opacity:1;stroke-width:0.117647" />
      <path
         id="path7881"
         d="m 56.550253,69.141803 c -0.04314,-0.04314 -0.07843,-0.17549 -0.07843,-0.294117 0,-0.177197 -0.09447,-0.215687 -0.529412,-0.215687 H 55.413 v -0.470588 -0.470588 h 0.830428 c 0.743162,0 0.876064,-0.03649 1.264706,-0.34726 2.221581,-1.776435 8.187674,-2.1928 11.91722,-0.831684 0.503749,0.183846 1.202235,0.524318 1.552189,0.756605 0.581433,0.385933 0.708756,0.422339 1.477046,0.422339 h 0.840764 v 0.464142 0.464142 l -0.558824,0.03586 c -0.476881,0.0306 -0.564336,0.07467 -0.596418,0.300564 -0.03634,0.255882 -0.08002,0.264706 -1.310436,0.264706 h -1.272842 l -0.07964,-0.424545 c -0.169165,-0.901728 -1.500001,-1.607142 -3.740659,-1.98275 l -0.441176,-0.07396 v 0.770036 0.770037 h -1 -1 V 67.94082 c 0,-0.18603 -0.03309,-0.503677 -0.07353,-0.705882 -0.06406,-0.320283 -0.122258,-0.367648 -0.451769,-0.367648 -0.558915,0 -2.149901,0.432436 -2.588669,0.703609 -0.679658,0.420051 -1.003679,0.824759 -1.003679,1.253611 v 0.395722 h -1.27451 c -0.700981,0 -1.309804,-0.03529 -1.352941,-0.07843 z"
         style="fill:#c9b970;fill-opacity:1;stroke-width:0.117647" />
      <path
         id="path7883"
         d="m 72.197253,57.259803 c -0.04314,-0.04314 -0.07843,-0.17549 -0.07843,-0.294117 0,-0.177197 -0.09447,-0.215687 -0.529412,-0.215687 H 71.06 v -0.470588 -0.470588 h 0.830428 c 0.743162,0 0.876064,-0.03649 1.264705,-0.34726 2.221582,-1.776435 8.187675,-2.1928 11.917221,-0.831684 0.503749,0.183846 1.202235,0.524318 1.552189,0.756605 0.581433,0.385933 0.708755,0.422339 1.477046,0.422339 h 0.840763 v 0.464142 0.464142 l -0.558823,0.03586 c -0.476881,0.0306 -0.564337,0.07467 -0.596418,0.300564 -0.03632,0.255715 -0.08044,0.264706 -1.299129,0.264706 h -1.261534 l -0.13624,-0.509387 c -0.10285,-0.38454 -0.251964,-0.589584 -0.608399,-0.836594 -0.577439,-0.400165 -1.758774,-0.839941 -2.544148,-0.947111 -0.320949,-0.0438 -0.676191,-0.105216 -0.789426,-0.13649 -0.180951,-0.04998 -0.205883,0.0367 -0.205883,0.715771 v 0.772634 h -1 -1 v -0.338235 c 0,-0.186029 -0.03309,-0.503677 -0.07353,-0.705882 -0.06406,-0.320283 -0.122258,-0.367647 -0.451769,-0.367647 -0.558915,0 -2.149902,0.432435 -2.588669,0.703608 -0.679658,0.420051 -1.00368,0.82476 -1.00368,1.253611 v 0.395722 h -1.274509 c -0.700981,0 -1.309804,-0.03529 -1.352942,-0.07843 z"
         style="fill:#c9b970;fill-opacity:1;stroke-width:0.117647" />
    </g>
  </g>
  <path
     data-name="Rectangle 4709"
     class="cls-3"
     d="M0 0h100v100H0z"
     id="Rectangle_4709" />
</svg>
